<?xml version="1.0" encoding="UTF-8"?><svg id="uuid-56aa4b42-b1ba-42d7-adea-f189596e8a57" xmlns="http://www.w3.org/2000/svg" viewBox="0 0 113.4 113.4"><defs><style>.uuid-40982906-4747-4cb8-93ef-b6a0ea47a8fd{fill:#000;stroke-width:0px;}</style></defs><path class="uuid-40982906-4747-4cb8-93ef-b6a0ea47a8fd" d="M108.9,34.6c-2.9-6.8-6.9-12.8-12.1-18-5.2-5.2-11.3-9.3-18-12.1C71.8,1.5,64.3,0,56.7,0s-15.1,1.5-22.1,4.5c-6.8,2.9-12.8,6.9-18,12.1-5.2,5.2-9.3,11.3-12.1,18C1.5,41.6,0,49,0,56.7s1.5,15.1,4.5,22.1c2.9,6.8,6.9,12.8,12.1,18,5.2,5.2,11.3,9.3,18,12.1,7,3,14.4,4.5,22.1,4.5s15.1-1.5,22.1-4.5c6.8-2.9,12.8-6.9,18-12.1,5.2-5.2,9.3-11.3,12.1-18,3-7,4.5-14.4,4.5-22.1s-1.5-15.1-4.5-22.1ZM56.7,111.9C26.2,111.9,1.5,87.1,1.5,56.7S26.2,1.5,56.7,1.5s55.2,24.8,55.2,55.2-24.8,55.2-55.2,55.2Z"/><path class="uuid-40982906-4747-4cb8-93ef-b6a0ea47a8fd" d="M86.7,73.4l-9.1-5.2s0,0,0,0c1.8-3.3,2.8-7,2.9-10.8,0,0,0,0,0,0h10.5c.2,0,.3-.1.3-.3v-.5c0-.2-.1-.3-.3-.3h-10.5s0,0,0,0c0-3.8-1.1-7.5-2.9-10.8,0,0,0,0,0,0l9.1-5.2c.1,0,.2-.3.1-.4l-.2-.4c0,0-.1-.1-.2-.1,0,0,0,0,0,0,0,0-.1,0-.2,0l-9.1,5.2s0,0,0,0c-2-3.2-4.7-6-7.9-7.9,0,0,0,0,0,0l5.2-9.1c0-.2,0-.3-.1-.4l-.4-.2s-.1,0-.2,0,0,0,0,0c0,0-.1,0-.2.1l-5.2,9.1s0,0,0,0c-3.3-1.8-7-2.8-10.8-2.9,0,0,0,0,0,0v-10.5c0-.2-.1-.3-.3-.3h-.5c-.2,0-.3.1-.3.3v10.5s0,0,0,0c-3.8,0-7.5,1.1-10.8,2.9,0,0,0,0,0,0l-5.2-9.1c0,0-.1-.1-.2-.1,0,0,0,0,0,0,0,0-.1,0-.2,0l-.4.2c-.2,0-.2.3-.1.4l5.2,9.1s0,0,0,0c-3.2,2-6,4.7-7.9,7.9,0,0,0,0,0,0l-9.1-5.2s-.1,0-.2,0c-.1,0-.2,0-.3.2l-.2.4c0,0,0,.2,0,.2s0,.1.1.2l9.1,5.2s0,0,0,0c-1.8,3.3-2.8,7.1-2.9,10.8,0,0,0,0,0,0h-10.5c-.2,0-.3.1-.3.3v.5c0,.2.1.3.3.3h10.5s0,0,0,0c0,3.8,1.1,7.5,2.9,10.8,0,0,0,0,0,0l-9.1,5.2c-.1,0-.2.3-.1.4l.2.4c0,0,.1.1.2.1,0,0,0,0,0,0,0,0,.1,0,.2,0l9.1-5.2s0,0,0,0c2,3.2,4.7,6,7.9,7.9,0,0,0,0,0,0l-5.2,9.1c0,.1,0,.3.1.4l.4.2s.1,0,.2,0,0,0,0,0c0,0,.1,0,.2-.1l5.2-9.1s0,0,0,0c3.3,1.8,7,2.8,10.8,2.9,0,0,0,0,0,0v10.5c0,.2.1.3.3.3h.5c.2,0,.3-.1.3-.3v-10.5s0,0,0,0c3.8,0,7.5-1.1,10.8-2.9,0,0,0,0,0,0l5.2,9.1c0,.1.2.2.3.2s.1,0,.2,0l.4-.2c0,0,.1-.1.1-.2,0,0,0-.2,0-.2l-5.2-9.1s0,0,0,0c0,0,0,0,0,0,3.2-2,6-4.7,7.9-7.9,0,0,0,0,0,0l9.1,5.2s.1,0,.2,0,0,0,0,0c0,0,.1,0,.2-.1l.2-.4c0-.2,0-.3-.1-.4ZM75.8,68.4c-1.8,3-4.4,5.6-7.4,7.4-.3.2-.6.4-.9.5-3.1,1.7-6.6,2.6-10.2,2.7-.4,0-.7,0-1.1,0-3.6,0-7.1-1-10.2-2.7-.3-.2-.6-.4-.9-.5-3-1.9-5.6-4.4-7.4-7.4-.2-.3-.4-.6-.5-.9-1.7-3.1-2.6-6.6-2.7-10.2,0-.2,0-.4,0-.5s0-.4,0-.5c0-3.6,1-7,2.7-10.2.2-.3.4-.6.5-.9,1.8-3,4.4-5.6,7.4-7.4.3-.2.6-.4.9-.5,3.1-1.7,6.6-2.6,10.2-2.7.2,0,.4,0,.5,0s.4,0,.5,0c3.6,0,7.1,1,10.2,2.7.3.2.6.4.9.5,3,1.8,5.6,4.4,7.4,7.4.2.3.4.6.5.9,1.7,3.1,2.6,6.6,2.7,10.2,0,.2,0,.4,0,.5s0,.4,0,.5c0,3.6-1,7.1-2.7,10.2-.2.3-.4.6-.5.9Z"/><path class="uuid-40982906-4747-4cb8-93ef-b6a0ea47a8fd" d="M19.2,59.6v-1.1l-1.3-.9c-.5-.4-.8-.6-1.2-.8h0c.3-.3.7-.5,1.2-.9l1.3-1v-1.1l-3,2.3-2.8-2.3v1.1l1.4,1c.4.3.6.5,1,.7h0c-.3.2-.6.4-1,.7l-1.4,1v1.1l2.9-2.2,2.9,2.3Z"/><path class="uuid-40982906-4747-4cb8-93ef-b6a0ea47a8fd" d="M23.2,38.1c.3.2.7.1.9-.2.2-.4,0-.7-.3-.9-.4-.2-.7-.1-.9.2-.2.3,0,.7.3.9Z"/><polygon class="uuid-40982906-4747-4cb8-93ef-b6a0ea47a8fd" points="22.4 36.4 17.7 33.7 17.2 34.6 22 37.1 22.4 36.4"/><polygon class="uuid-40982906-4747-4cb8-93ef-b6a0ea47a8fd" points="57 94.3 56.3 94.3 56.3 96.9 53.8 96.9 53.8 97.6 56.3 97.6 56.3 100.2 57 100.2 57 97.6 59.6 97.6 59.6 96.9 57 96.9 57 94.3"/><path class="uuid-40982906-4747-4cb8-93ef-b6a0ea47a8fd" d="M34.7,90.6c-.4-.2-.7-.1-.9.2-.2.3,0,.7.3.9.3.2.7.1.9-.2.2-.4,0-.7-.3-.9Z"/><path class="uuid-40982906-4747-4cb8-93ef-b6a0ea47a8fd" d="M38.1,92.6c-.4-.2-.7-.1-.9.2-.2.3,0,.7.3.9.3.2.7.1.9-.2.2-.4,0-.7-.3-.9Z"/><path class="uuid-40982906-4747-4cb8-93ef-b6a0ea47a8fd" d="M37.8,89.2c-1.9-1.1-3.5-1.2-4.7-1.1l-.4.7c1.4-.1,2.9,0,4.6,1.1,1.7,1,2.7,2.3,3.2,3.5l.4-.7c-.5-1.1-1.3-2.5-3.2-3.6Z"/><path class="uuid-40982906-4747-4cb8-93ef-b6a0ea47a8fd" d="M79.2,94.4c-.6.4-1.1.3-1.4,0-.3-.4-.3-.9-.2-1.6,0-.8,0-1.4-.5-1.8l-.2-.2-.7.5.2.2c.3.4.4.9.4,1.6,0,.8-.1,1.4.3,2,.5.6,1.3.9,2.4.1.5-.3.9-.8,1.1-1.3l-.6-.4c-.1.3-.4.7-.7.9Z"/><path class="uuid-40982906-4747-4cb8-93ef-b6a0ea47a8fd" d="M76.4,89.4c-.2-.3-.6-.4-.9-.1-.3.2-.4.6-.2.9.2.3.6.4.9.1.3-.2.4-.6.2-.9Z"/><polygon class="uuid-40982906-4747-4cb8-93ef-b6a0ea47a8fd" points="94.2 54 94.2 54.8 98.6 56.7 98.6 56.7 94.2 58.6 94.2 59.3 99.4 57 99.4 56.3 94.2 54"/><path class="uuid-40982906-4747-4cb8-93ef-b6a0ea47a8fd" d="M91.1,39.7c.7.2,1.4,0,2.1-.3.6-.3,1-.8,1.2-1.4.2-.6,0-1.1-.3-1.7-.2-.4-.7-.8-1.3-1.1l.9-.5c.9-.5,1.6-.9,2-1.1h0c-.4-.5-.8-1-1.2-1.4h-.1c0,.1.2.8.2.8-.6.3-1.2.7-1.8,1.1l-2.6,1.5c-.6.3-1.1.6-1.5.8.2.7.4,1.3.7,1.8.5.8,1,1.3,1.7,1.5ZM92.6,35.3c.3.2.5.5.7.8.3.5.3.9.2,1.3-.1.4-.5.8-1,1.1-.6.3-1.1.5-1.5.4-.5,0-.8-.4-1.1-.9-.2-.3-.3-.5-.3-.8l3.1-1.8Z"/><path class="uuid-40982906-4747-4cb8-93ef-b6a0ea47a8fd" d="M56.7,19.1c.6,0,.9-.4.9-1s-.4-1-.9-1-.9.4-.9,1,.4,1,.9,1Z"/><path class="uuid-40982906-4747-4cb8-93ef-b6a0ea47a8fd" d="M23.8,75l-1,.6s0,0,0,0c-.7-.9-1.7-1-2.5-.6-.9.5-1.1,1.3-.9,2.5l-2,1.1c-.2-.5-.3-1-.2-1.2h-.8c0,.5,0,1,.4,1.6l-.9.5.3.6,1-.5s0,0,0,0c0,0,0,0,0,0h0s0,0,0,0c.6.8,1.5,1,2.3.5.8-.4.9-1.2.8-2.3l2.2-1.2c.2.5.3,1.1.3,1.5h.8c0-.6,0-1.3-.4-1.9l1-.5-.3-.6ZM18.9,79.3c-.3.2-.7.2-1.1-.1l.3-.2s0,0,0,0l-.3.2s0,0,0,0l1.6-.9c0,.5-.1.9-.5,1.1ZM20.3,77c0-.6.2-1,.6-1.2.4-.2.9-.2,1.3.2l-1.8,1Z"/><path class="uuid-40982906-4747-4cb8-93ef-b6a0ea47a8fd" d="M33.7,24.4c0,0,0,.1.1.2,0,0,0,0,0,0,.8,1,2.3.9,3,0,.3-.4.5-.9.6-1.4,0-.2,0-.3.1-.3,0,0,.1,0,.3,0,.5.1,1,.2,1.5.2,1.2,0,2.1-1.3,1.6-2.5,0,0,0,0,0,0,0,0,0-.1,0-.2,0,0,0,0,0,0-.4-.8-1.4-1.1-2.3-.8-.2,0-.4.2-.5.3-.1,0-.2.2-.3.3,0,0-.1.2-.2.2-.3.4-.4.9-.6,1.4,0,0,0,0,0,0,0,0,0,0,0,0-.5-.1-1-.2-1.5-.3,0,0-.2,0-.3,0-.2,0-.3,0-.5,0-.2,0-.4.2-.6.3-.7.6-.9,1.6-.5,2.4,0,0,0,0,0,0ZM38.4,20.7c0,0,0-.1.1-.2,0,0,.1-.1.2-.2,0,0,0,0,0,0,.4-.2.9-.2,1.3,0,.3.3.5.7.4,1.1,0,0,0,.1,0,.2,0,0,0,0,0,0-.1.3-.4.5-.7.6-.2,0-.3,0-.5,0-.5,0-.9-.1-1.3-.2,0,0-.1,0,0-.1.2-.4.3-.9.5-1.3ZM34.8,22.5s0,0,0,0c0,0,.2,0,.3,0,0,0,.2,0,.3,0,.5,0,.9.1,1.4.2,0,0,0,0,0,.1-.1.4-.3.9-.5,1.3,0,.1-.2.3-.3.4-.2.2-.5.3-.9.2,0,0,0,0,0,0,0,0-.1,0-.2,0-.4-.2-.6-.5-.7-.9,0-.4.2-.9.6-1.1Z"/><path class="uuid-40982906-4747-4cb8-93ef-b6a0ea47a8fd" d="M95.2,74.7l-6,.8,1.6,5.8c.2.6.5,1.1,1.1,1.4.4.3.9.4,1.4.4s.2,0,.3,0c.6,0,1.1-.4,1.4-.9s.4-1.1.3-1.7l-.4-1.3,1.4-.2c.6,0,1.1-.4,1.4-.9.3-.5.4-1.1.3-1.7-.3-1.2-1.6-2-2.8-1.9ZM97.2,77.8c-.2.3-.5.5-1,.6l-2.2.3.6,2.1c.1.4,0,.8-.2,1.1-.2.3-.5.5-1,.6h0c-.4,0-.9,0-1.3-.3-.4-.3-.7-.6-.8-1l-1.4-5,5.2-.7c.9-.1,1.8.5,2,1.4.1.4,0,.8-.2,1.1Z"/><path class="uuid-40982906-4747-4cb8-93ef-b6a0ea47a8fd" d="M73.9,23.2l.4.2c.5-.4.8-.7,1.2-1,.3-.3.7-.5,1.1-.9.1-.1.3-.2.4-.4,0,.2,0,.4-.1.5,0,.5-.2.9-.2,1.3,0,.4-.2.9-.3,1.5l.4.2c.6-.5,1.2-1,1.8-1.4.5-.4,1.1-.9,1.8-1.4.1,0,.2-.1.3,0h.4c0,.1,0,0,0,0-.2-.1-.5-.2-.7-.4-.3-.2-.5-.3-.8-.4v.2c0,0,.3.4.3.4-.6.5-1.3,1.1-2.1,1.8-.2.1-.3.3-.5.4,0-.2,0-.4.1-.6.1-.8.3-1.4.3-1.8,0-.4.2-.9.3-1.3l-.3-.2c-.3.3-.6.6-1,.9-.3.3-.8.7-1.4,1.2-.2.1-.3.3-.5.4,0-.2,0-.4.1-.6.2-1,.3-1.9.5-2.7l.6.2v-.2c-.3-.2-.6-.4-.9-.6-.2-.1-.5-.3-.9-.6v.2c0,0,.2.3.2.3,0,0,.1.2.1.3-.1.8-.2,1.6-.3,2.3-.1.7-.2,1.4-.4,2.3Z"/></svg>