<?xml version="1.0" encoding="UTF-8"?><svg id="uuid-63cc14fc-052a-4093-a364-40c4f64e4ba4" xmlns="http://www.w3.org/2000/svg" viewBox="0 0 113.4 113.4"><defs><style>.uuid-3f110fcf-5945-46b9-a0c0-dc3f20681f71{fill:#000;stroke-width:0px;}</style></defs><path class="uuid-3f110fcf-5945-46b9-a0c0-dc3f20681f71" d="M46.9,101.5c-5.4,0-10.6-1.1-15.5-3.3-4.7-2.1-9-5.1-12.7-9-7.5-7.9-11.7-18.4-11.7-29.6s1.3-13.9,3.9-20.3c2.5-6.2,6.1-11.8,10.6-16.6,4.6-4.8,9.9-8.6,15.8-11.2,6.1-2.7,12.6-4.1,19.3-4.1s13.2,1.4,19.3,4.1c5.9,2.6,11.2,6.4,15.8,11.2,4.6,4.8,8.1,10.4,10.6,16.6,2.6,6.4,3.9,13.3,3.9,20.3s-3.5,18.1-9.7,24.8c-6.3,6.6-14.7,10.3-23.6,10.3s-7.2-3.4-7.2-7.6v-6.9c0-.4.3-.7.7-.7h6.5c10.4,0,18.8-8.9,18.8-19.9,0-20.4-15.8-37-35.1-37S21.6,39.2,21.6,59.6s11.4,26.7,25.3,26.7.7.3.7.7-.3.7-.7.7c-7.2,0-13.9-2.9-19-8.3-5.1-5.3-7.8-12.4-7.8-19.9s3.8-19.9,10.7-27.2c6.9-7.3,16.1-11.3,25.9-11.3s19,4,25.9,11.3c6.9,7.3,10.7,16.9,10.7,27.2s-9.1,21.3-20.3,21.3h-5.8v6.1c0,3.4,2.6,6.1,5.8,6.1,17.6,0,31.9-15.1,31.9-33.6,0-28-21.6-50.7-48.2-50.7S8.5,31.6,8.5,59.6s17.2,40.4,38.4,40.4,12.3-5.8,12.3-13v-13h-12.3c-7.6,0-13.8-6.5-13.8-14.4,0-13.6,10.6-24.7,23.5-24.7s23.5,11.1,23.5,24.7-3.3,7.6-7.2,7.6h-6.5c-.4,0-.7-.3-.7-.7v-6.9c0-5.3-4.1-9.6-9-9.6s-9,4.3-9,9.6-.3.7-.7.7-.7-.3-.7-.7c0-6.1,4.7-11,10.5-11s10.5,4.9,10.5,11v6.1h5.8c3.2,0,5.8-2.8,5.8-6.1,0-12.8-9.9-23.3-22.1-23.3s-22.1,10.4-22.1,23.3,5.5,13,12.3,13h12.3v-13c0-1.5-1.1-2.7-2.5-2.7s-2.5,1.2-2.5,2.7v6.9c0,.4-.3.7-.7.7h-6.5c-4,0-7.2-3.4-7.2-7.6,0-9.9,7.6-17.9,17-17.9s17,8,17,17.9-.3.7-.7.7-.7-.3-.7-.7c0-9.1-7-16.4-15.6-16.4s-15.6,7.4-15.6,16.4,2.6,6.1,5.8,6.1h5.8v-6.1c0-2.3,1.8-4.2,4-4.2s4,1.9,4,4.2v13h12.3c6.8,0,12.3-5.8,12.3-13,0-16.6-12.8-30.1-28.6-30.1s-28.6,13.5-28.6,30.1,8.4,19.9,18.8,19.9h6.5c.4,0,.7.3.7.7v6.9c0,4.2-3.3,7.6-7.2,7.6-8.9,0-17.3-3.6-23.6-10.3-6.3-6.6-9.7-15.4-9.7-24.8s1.1-12,3.4-17.6c2.2-5.4,5.3-10.2,9.2-14.4,4-4.2,8.6-7.4,13.7-9.7,5.3-2.4,11-3.6,16.8-3.6s11.5,1.2,16.8,3.6c5.1,2.3,9.7,5.6,13.7,9.7,4,4.2,7.1,9,9.2,14.4,2.2,5.6,3.4,11.5,3.4,17.6s-2.8,14.6-7.8,19.9c-5.1,5.3-11.8,8.3-19,8.3s-.7-.3-.7-.7.3-.7.7-.7c14,0,25.3-12,25.3-26.7,0-24.2-18.7-43.9-41.6-43.9S15.1,35.4,15.1,59.6s14.3,33.6,31.9,33.6,5.8-2.8,5.8-6.1v-6.1h-5.8c-11.2,0-20.3-9.6-20.3-21.3s3.1-16.4,8.8-22.3c5.7-6,13.2-9.3,21.3-9.3s15.6,3.3,21.3,9.3c5.7,6,8.8,13.9,8.8,22.3s-6.2,14.4-13.8,14.4h-12.3v13c0,8-6.2,14.4-13.8,14.4Z"/><path class="uuid-3f110fcf-5945-46b9-a0c0-dc3f20681f71" d="M56.7,113.4c-7.7,0-15.1-1.5-22.1-4.5-6.8-2.9-12.8-6.9-18-12.1-5.2-5.2-9.3-11.3-12.1-18-3-7-4.5-14.4-4.5-22.1s1.5-15.1,4.5-22.1c2.9-6.8,6.9-12.8,12.1-18s11.3-9.3,18-12.1C41.6,1.5,49,0,56.7,0s15.1,1.5,22.1,4.5c6.8,2.9,12.8,6.9,18,12.1s9.3,11.3,12.1,18c3,7,4.5,14.4,4.5,22.1s-1.5,15.1-4.5,22.1c-2.9,6.8-6.9,12.8-12.1,18-5.2,5.2-11.3,9.3-18,12.1-7,3-14.4,4.5-22.1,4.5ZM56.7,1.5C26.2,1.5,1.5,26.2,1.5,56.7s24.8,55.2,55.2,55.2,55.2-24.8,55.2-55.2S87.1,1.5,56.7,1.5Z"/></svg>